<?xml version="1.0" encoding="utf-8"?>
<!-- Generator: Adobe Illustrator 16.0.0, SVG Export Plug-In . SVG Version: 6.00 Build 0)  -->
<!DOCTYPE svg PUBLIC "-//W3C//DTD SVG 1.1//EN" "http://www.w3.org/Graphics/SVG/1.1/DTD/svg11.dtd">
<svg version="1.1" id="Layer_1" xmlns="http://www.w3.org/2000/svg" xmlns:xlink="http://www.w3.org/1999/xlink" x="0px" y="0px"
	 width="473.061px" height="297.115px" viewBox="0 0 473.061 297.115" enable-background="new 0 0 473.061 297.115"
	 xml:space="preserve">
<path fill="none" d="M161.455,157.006c0,2.613,0.812,5.019,2.231,6.777l10.1-24.594
	C166.978,142.523,161.455,148.194,161.455,157.006z"/>
<path fill="none" d="M230.157,163.446c2.042,0,4.099-0.796,4.099-3.22c0-2.806-2.058-3.221-4.514-3.221c-2.44,0-3.668,0-6.54,2.424
	C226.472,163.446,227.7,163.446,230.157,163.446z"/>
<path fill="none" d="M237.525,133.271c0-2.822-2.871-3.619-5.327-3.619c-4.498,0-11.038,1.212-13.495,8.449
	c2.872,0.797,6.956,1.212,8.184,1.212C228.928,139.312,237.525,138.897,237.525,133.271z"/>
<path fill="#FFFFFF" d="M155.413,183.93l-23.288-64.287l-24.367,64.287l-23.321-60.303H69.764l38.045,95.725l24.001-63.788
	l23.039,63.722l18.656-44.632c-3.979-0.31-8.731-1.899-12.094-5.33L155.413,183.93z"/>
<path fill="#FFFFFF" d="M194.834,123.626h-14.657l-4.305,10.481c5.385-1.986,11.054-2.835,15.769-2.844L194.834,123.626z"/>
<path fill="#BCBCBB" d="M180.261,159.032c-0.084,0-0.153,0.017-0.235,0.02c-5.431,0.221-3.946,7.615-10.405,7.615
	c-2.457,0-4.504-1.113-5.935-2.884c-1.419-1.759-2.231-4.164-2.231-6.777c0-8.812,5.522-14.483,12.331-17.816l2.087-5.082
	c-8.624,3.182-16.508,9.296-18.519,19.68v7.252c0,0.798,0.814,2.407,0.814,3.221c0.757,2.014,1.89,3.683,3.243,5.063
	c3.362,3.431,8.115,5.021,12.094,5.33c0.494,0.037,0.979,0.063,1.444,0.063c4.498,0,11.852-2.009,11.852-8.846
	C186.801,163.049,185.572,159.032,180.261,159.032z"/>
<path fill="#FFFFFF" d="M175.873,134.107l-2.087,5.082l-10.1,24.594c1.431,1.771,3.478,2.884,5.935,2.884
	c6.459,0,4.975-7.395,10.405-7.615l9.932-23.758l1.684-4.03C186.927,131.272,181.258,132.121,175.873,134.107z"/>
<path fill="none" d="M230.157,163.446c2.042,0,4.099-0.796,4.099-3.22c0-2.806-2.058-3.221-4.514-3.221c-2.44,0-3.668,0-6.54,2.424
	C226.472,163.446,227.7,163.446,230.157,163.446z"/>
<path fill="none" d="M301.729,142.118c-3.552,0-6.468,0.623-8.175,2.631c-0.001,0.053-0.008,0.104-0.008,0.157
	c0,3,1.488,5.59,4.409,7.796c0.69-0.297,1.326-0.526,1.732-0.526c2.253,0,4.137,1.708,4.437,3.848l8.079,3.374
	c0.272,0.111,0.523,0.231,0.791,0.347c0.396-1.438,0.603-3.021,0.603-4.746C313.597,148.558,309.913,142.118,301.729,142.118z"/>
<path fill="none" d="M237.525,133.271c0-2.822-2.871-3.619-5.327-3.619c-4.498,0-11.038,1.212-13.495,8.449
	c2.872,0.797,6.956,1.212,8.184,1.212C228.928,139.312,237.525,138.897,237.525,133.271z"/>
<path fill="#BCBCBB" d="M260.417,155.812c-6.126,0-17.579,3.618-17.579,14.076c0,2.424,0.813,8.447,6.955,8.447
	c2.042,0,5.726-1.61,5.726-4.829c0-4.416-4.912-4.83-4.912-8.848c0-2.821,1.644-3.619,4.497-3.619c0,0,11.453,1.611,11.453,5.628
	c0,18.923-12.266,37.828-35.985,37.828c-12.267,0-27.006-6.839-27.006-22.541c0-1.194,0-5.229,0.83-7.237
	c0.398-2.009,6.54-11.271,10.225-11.271c0,0,8.183,5.644,13.495,5.644c4.498,0,11.038-2.423,11.038-8.863
	c0-4.83-4.897-7.636-8.997-7.636c-2.457,0-7.354,1.196-9.81,2.806c-2.457-2.009-3.686-7.238-3.686-9.644
	c0-1.211,0.415-2.822,0.814-4.034c3.271,0.814,8.598,1.61,9.412,1.61c4.083,0,15.536-2.008,15.536-10.059
	c0-6.44-7.353-7.652-11.038-7.652c-3.685,0-9.81,0.813-13.495,4.033c-2.457,1.611-6.142,6.042-6.955,6.042
	c-1.644,0-10.64-4.432-19.222-4.432c-0.023,0-0.048,0.001-0.072,0.001l-1.684,4.03c0.318-0.009,0.634-0.015,0.942-0.015
	c6.541,0,11.039,0.813,18.392,4.034c-1.212,2.805-2.042,6.838-2.042,8.05c0,4.018,1.229,7.636,4.498,12.466
	c-13.892,7.237-18.407,16.896-18.407,26.957c0,20.532,19.636,28.565,35.189,28.565c23.72,0,41.298-20.117,41.713-46.675
	c8.183,4.032,15.535,6.439,23.718,6.439c4.13,0,8.623-0.742,12.582-2.527l-8.315-3.525
	C279.521,168.758,272.948,155.812,260.417,155.812z M229.742,157.006c2.457,0,4.514,0.415,4.514,3.221
	c0,2.424-2.058,3.22-4.099,3.22c-2.457,0-3.685,0-6.955-4.017C226.073,157.006,227.301,157.006,229.742,157.006z M232.198,129.651
	c2.457,0,5.327,0.797,5.327,3.619c0,5.627-8.598,6.042-10.639,6.042c-1.228,0-5.312-0.415-8.184-1.212
	C221.16,130.863,227.7,129.651,232.198,129.651z"/>
<path fill="#FFFFFF" d="M293.546,144.906c0-0.054,0.007-0.104,0.008-0.157c-1.042,1.229-1.634,2.974-1.634,5.42
	c0,0.812-0.415,4.033,2.456,4.033c0.545,0,2.184-0.9,3.579-1.5C295.034,150.496,293.546,147.905,293.546,144.906z"/>
<path fill="#BCBCBB" d="M302.144,138.499c-2.312,0-4.928,0.415-7.352,1.379c-4.43,1.764-8.2,5.398-8.2,11.899
	c0,5.645,4.1,10.061,10.226,10.061c2.059,0,7.368-1.195,7.368-5.229c0-0.198-0.034-0.391-0.062-0.584
	c-0.3-2.14-2.184-3.848-4.437-3.848c-0.406,0-1.042,0.229-1.732,0.526c-1.396,0.6-3.034,1.5-3.579,1.5
	c-2.871,0-2.456-3.221-2.456-4.033c0-2.446,0.592-4.192,1.634-5.42c1.707-2.008,4.623-2.631,8.175-2.631
	c8.185,0,11.868,6.44,11.868,12.88c0,1.725-0.207,3.308-0.603,4.746c1.307,0.561,2.552,1.143,3.725,1.75
	c0.601-1.926,0.963-4.063,0.963-6.496C317.682,146.549,312.768,138.499,302.144,138.499z"/>
<path fill="#FFFFFF" d="M328.089,170.367c-2.621-3.344-6.414-6.31-11.37-8.873c-1.173-0.607-2.418-1.189-3.725-1.75
	c-0.268-0.115-0.519-0.235-0.791-0.347l-8.079-3.374c0.027,0.193,0.062,0.386,0.062,0.584c0,4.034-5.31,5.229-7.368,5.229
	c-6.126,0-10.226-4.416-10.226-10.061c0-6.501,3.771-10.135,8.2-11.899c0.606-1.105,1.422-2.122,2.473-3.039
	c2.474-2.141,5.56-3.236,9.328-3.236c3.038,0,5.544,0.631,7.487,1.875c1.857,1.112,3.815,3.453,5.842,7.004l10.987-6.54
	c-5.81-9.544-13.859-14.308-24.184-14.308c-7.668,0-14.074,2.341-19.271,6.989c-5.195,4.597-7.768,10.341-7.768,17.163
	c0,10.193,6.092,17.91,18.291,23.171l0.25,0.105l8.315,3.525l0.05,0.021c2.242,0.995,4.15,2.059,5.76,3.12
	c1.611,1.096,2.904,2.24,3.934,3.485c1.014,1.245,1.759,2.59,2.258,4.085c0.481,1.493,0.729,3.12,0.729,4.862
	c0,4.414-1.378,8.066-4.165,10.938c-2.789,2.854-6.273,4.299-10.491,4.299c-5.345,0-9.396-1.941-12.184-5.859
	c-1.543-1.991-2.622-5.677-3.251-10.971l-13.662,3.02c1.229,8.416,4.332,14.84,9.312,19.222c5.063,4.366,11.47,6.54,19.271,6.54
	c8.149,0,15.054-2.739,20.649-8.283c5.576-5.477,8.382-12.398,8.382-20.814C333.135,179.994,331.44,174.7,328.089,170.367z"/>
<polygon fill-rule="evenodd" clip-rule="evenodd" fill="#FFFFFF" points="398.699,123.626 348.97,123.626 348.97,213.358 
	398.699,213.358 398.699,201.407 362.829,201.407 362.829,169.489 397.687,169.489 397.687,157.538 362.829,157.538 
	362.829,135.594 398.699,135.594 "/>
<path fill-rule="evenodd" clip-rule="evenodd" fill="#FFFFFF" d="M437.237,243.271h0.203V0H35.621v243.271h0.202L0,281.163
	l19.786,15.952h433.49l19.785-15.952L437.237,243.271z M43.538,7.984h385.983v227.318H43.538V7.984z"/>
</svg>
